<svg width="160" height="160" viewBox="0 0 160 160" fill="none" xmlns="http://www.w3.org/2000/svg">
  <rect width="160" height="160" rx="80" fill="#FFF2E8"/>
  <circle cx="80" cy="62" r="28" fill="#FFD7BF"/>
  <path d="M52 58C52 43 64 34 80 34C96 34 108 43 108 58V66H52V58Z" fill="#7A4A2E"/>
  <rect x="41" y="96" width="78" height="42" rx="20" fill="#F26B1D"/>
  <rect x="67" y="82" width="26" height="28" rx="13" fill="#FFD7BF"/>
  <circle cx="69" cy="63" r="3" fill="#4B2E22"/>
  <circle cx="91" cy="63" r="3" fill="#4B2E22"/>
  <path d="M70 75C73 79 77 81 80 81C83 81 87 79 90 75" stroke="#C26D4C" stroke-width="3" stroke-linecap="round"/>
  <path d="M80 111L84.3 119.7L94 121L87 127.6L88.8 137L80 132.4L71.2 137L73 127.6L66 121L75.7 119.7L80 111Z" fill="#FFE5AE"/>
</svg>
